<svg width="300" height="76" viewBox="0 0 300 76" fill="none" xmlns="http://www.w3.org/2000/svg">
  <path
          d="M38.532 55.139L30.24 59.636L27.554 53.7967C24.79 57.191 20.682 59.636 15.394 59.636C5.288 59.636 0 51.2745 0 38.3384C0 24.2993 6.238 16.7241 16.181 16.7241C20.836 16.7241 24.473 18.4597 26.843 21.6916V1.0264H35.366V48.8292L38.524 55.139H38.532ZM26.843 49.4619V27.4543C24.636 25.6417 21.872 24.5387 18.945 24.5387C12.63 24.5387 8.916 29.3524 8.916 38.4239C8.916 47.4954 12.391 51.9157 18.783 51.9157C21.624 51.9157 24.55 50.9667 26.835 49.4704L26.843 49.4619Z"
          fill="white"/>
  <path
          d="M80.847 39.1253H52.9C53.456 46.3072 59.061 51.1123 67.9 51.1123C72.401 51.1123 77.296 50.1632 80.607 48.4276L77.92 57.1828C75.157 58.679 70.501 59.628 65.128 59.628C52.421 59.628 44.052 51.0268 44.052 37.9368C44.052 24.8468 52.027 16.7158 64.734 16.7158C75.234 16.7158 81.865 22.7093 81.865 32.4135C81.865 34.6194 81.472 37.2272 80.838 39.1167L80.847 39.1253ZM53.37 33.2087H73.505C73.111 27.0527 70.185 24.1372 64.743 24.1372C58.821 24.1372 54.714 27.5315 53.37 33.2087Z"
          fill="white"/>
  <path
          d="M101.614 58.6102L85.51 17.75H94.905L105.405 46.3069L106.586 49.8551H106.902L108.083 46.3069L118.506 17.75H127.739L111.711 58.6102H101.606H101.614Z"
          fill="white"/>
  <path
          d="M155.686 17.8267H174.16L172.98 24.3759H154.505L148.027 61.132C146.213 71.384 139.342 75.248 129.715 75.248C125.291 75.248 123.238 74.615 121.03 74.145L120.876 67.519C123.084 67.912 125.694 68.152 129.322 68.152C135.089 68.152 138.871 65.86 139.744 61.055L146.213 24.3759H133.344L134.524 17.8267H147.394L148.027 14.039C149.841 3.8646 156.636 0 166.185 0C170.686 0 172.971 0.632701 174.948 1.1029L175.102 7.8831C172.894 7.3273 170.284 7.0965 166.656 7.0965C160.974 7.0965 157.183 9.3878 156.311 14.1929L155.677 17.8181L155.686 17.8267Z"
          fill="white"/>
  <path
          d="M212.291 39.1253H184.344C184.9 46.3072 190.505 51.1123 199.344 51.1123C203.845 51.1123 208.74 50.1632 212.052 48.4276L209.365 57.1828C206.601 58.679 201.946 59.628 196.572 59.628C183.865 59.628 175.496 51.0268 175.496 37.9368C175.496 24.8468 183.471 16.7158 196.178 16.7158C206.678 16.7158 213.31 22.7093 213.31 32.4135C213.31 34.6194 212.916 37.2272 212.283 39.1167L212.291 39.1253ZM184.815 33.2087H204.949C204.556 27.0527 201.629 24.1372 196.187 24.1372C190.266 24.1372 186.158 27.5315 184.815 33.2087Z"
          fill="white"/>
  <path
          d="M221.447 56.165L220.891 47.0165C224.519 49.5387 231.15 51.7532 238.099 51.7532C243.387 51.7532 247.178 50.0945 247.178 46.3924C247.178 38.6632 221.755 45.8366 221.755 30.0619C221.755 22.7261 227.283 16.4932 240.469 16.4932C248.521 16.4932 254.682 18.4682 254.682 23.3588C254.682 24.855 254.049 26.1204 253.416 27.3003C249.942 25.6416 244.491 24.4617 239.913 24.4617C233.598 24.4617 230.278 26.8301 230.278 29.4293C230.278 36.2949 256.017 30.2928 256.017 45.6827C256.017 54.284 248.436 59.645 237.149 59.645C229.49 59.645 223.732 57.1995 221.438 56.1735L221.447 56.165Z"
          fill="white"/>
  <path
          d="M300 49.932L298.263 57.9006C296.209 58.7727 292.102 59.636 288.311 59.636C278.128 59.636 273.781 54.3524 273.781 46.8541V24.9234H262.178V17.7415H273.781V6.541H282.304V17.7415H298.802V24.9234H282.304V44.2463C282.304 49.5302 285.068 51.8985 289.885 51.8985C292.649 51.8985 297.698 51.2658 299.991 49.9235L300 49.932Z"
          fill="white"/>
</svg>
