<svg xmlns="http://www.w3.org/2000/svg" width="1761" height="691.284">
  <g>
    <path fill="#dd0031"
          d="m1439.207 0-321.793 114.753 49.081 425.486 272.712 151.045 272.707-151.045 49.081-425.486Z"/>
    <path fill="#c3002f" d="M1439.207 0v691.284l272.712-151.045L1761 114.753Z"/>
    <path fill="#fff"
          d="M1439.207 76.387 1238.043 527.45h75l40.44-100.928h170.752l40.44 100.928h75L1439.207 76.387Zm58.759 287.92h-117.523l58.759-141.368Z"/>
    <path fill="#191918"
          d="M1146.341 350.203v-6.658h-39.574a174.68 174.68 0 0 0-40.589-40.105c-39.854-28.657-92.229-44.439-147.479-44.439-81.193 0-152.164 34.066-188.092 84.545h-39.551v6.658h35.078q-2.277 3.6-4.323 7.288h-30.755v6.658h27.312a125.782 125.782 0 0 0-12.22 43.695 42.659 42.659 0 0 1-8.673-4.161l-5.728 5.089c16.955 10.717 41.169 11.277 58.88 1.677 16.737 9.071 39.28 9.071 56.017 0 16.738 9.072 39.28 9.071 56.016 0 16.738 9.072 39.281 9.071 56.017 0 16.737 9.071 39.28 9.071 56.017 0 16.737 9.071 39.28 9.071 56.017 0a61.059 61.059 0 0 0 56.017 0c17.711 9.6 41.924 9.038 58.88-1.678l-5.728-5.091a42.6 42.6 0 0 1-8.618 4.141 125.764 125.764 0 0 0-12.245-43.675h27.322v-6.658h-30.774q-2.037-3.684-4.318-7.288Zm-59.613 51.669-2.863 1.81c-14.569 9.21-35.72 9.21-50.289 0l-2.863-1.81-2.863 1.81c-14.569 9.21-35.72 9.21-50.289 0l-2.863-1.81-2.863 1.81c-14.569 9.21-35.72 9.21-50.289 0l-2.863-1.81-2.863 1.81c-14.568 9.21-35.718 9.21-50.289 0l-2.863-1.81-2.863 1.81c-14.568 9.21-35.719 9.21-50.288 0l-2.863-1.81-2.863 1.81c-14.569 9.21-35.72 9.21-50.289 0l-2.863-1.81-2.863 1.81a41.708 41.708 0 0 1-5.942 3.1 107.142 107.142 0 0 1 14.807-42.636h324.123a107.154 107.154 0 0 1 14.814 42.65 41.607 41.607 0 0 1-5.98-3.118Zm-44.581-78.858a153.28 153.28 0 0 1 23.16 20.53h-23.16Zm-8.883 20.53h-20.866v-37.953a185.362 185.362 0 0 1 20.866 11.4v26.552Zm-29.749 0h-20.866V294.47a207.79 207.79 0 0 1 20.866 7.235Zm-29.75 0h-20.872v-55.5q10.623 1.55 20.873 4.054Zm-29.758 0H923.14v-57.918q10.542.194 20.868 1.3Zm-29.751 0H893.39v-56.618q10.311-1.1 20.868-1.3Zm-29.752 0H863.64v-51.45q10.231-2.494 20.866-4.05Zm-29.749 0h-20.863v-41.846a207.983 207.983 0 0 1 20.866-7.235Zm-29.75 0h-20.873v-26.555a185.3 185.3 0 0 1 20.876-11.408Zm-29.759 0h-23.159a153.293 153.293 0 0 1 23.162-20.535Zm-28.89 6.659h304.671q2.874 3.582 5.434 7.288H760.936q2.56-3.702 5.42-7.288Zm338.406 59.412c-2.984-34.927-23.119-67.423-56.97-91.775-34.883-25.1-80.732-38.917-129.1-38.917-48.535 0-94.5 13.9-129.423 39.149-33.671 24.34-53.674 56.727-56.65 91.536a51.593 51.593 0 0 1-17.762.39c6.041-80.981 95.434-144.34 203.834-144.34 52.946 0 103.138 15.124 141.328 42.585 37.484 26.953 59.612 63.027 62.5 101.749a51.574 51.574 0 0 1-17.752-.377Z"/>
    <path fill="#77bc1f"
          d="M628.461 36a319.1 319.1 0 0 1-36.9 65.519A346.676 346.676 0 0 0 346.495 0C156.418 0 0 156.6 0 346.945a347.262 347.262 0 0 0 107.638 251.366l12.78 11.34a346.513 346.513 0 0 0 223.2 81.629c180.717 0 332.635-141.658 345.5-322.2C698.57 280.706 672.65 168.928 628.461 36ZM156.868 600.291a29.665 29.665 0 1 1-23.04-48.419 29.329 29.329 0 0 1 18.63 6.66 29.8 29.8 0 0 1 4.41 41.759Zm470.153-103.858c-85.5 114.028-268.106 75.6-385.194 81.089 0 0-20.79 1.26-41.669 4.68 0 0 7.83-3.33 18-7.2 82.169-28.62 121.048-34.2 171-59.849 94.042-47.88 187.014-152.638 206.363-261.627C559.7 358.375 451.163 448.464 352.255 485.093c-67.769 25.02-190.167 49.319-190.167 49.319l-4.95-2.61C73.8 491.213 71.279 310.586 222.747 252.266c66.329-25.56 129.778-11.52 201.417-28.62 76.5-18.18 164.968-75.6 200.967-150.478 40.319 119.788 88.829 307.346 1.89 423.264Z"/>
  </g>
</svg>
